<svg width="43" height="39.826" xmlns="http://www.w3.org/2000/svg"><path d="M0 38.326c0-.825.845-1.5 1.878-1.5 1.032 0 2.365-.588 2.96-1.305.596-.718 3.977-8.93 7.514-18.25C18.035 2.297 19.062.29 21.176.03c2.224-.276 2.92.996 9.862 18 6.315 15.467 7.817 18.344 9.716 18.614 1.235.176 2.246.964 2.246 1.75 0 1.146-1.994 1.43-10 1.43-8.222 0-10-.266-10-1.5 0-.824.873-1.5 1.941-1.5 2.884 0 3.184-1.272 1.381-5.861l-1.625-4.138H13.188l-1.55 4.548c-1.347 3.955-1.36 4.607-.094 5l2.956.92c.825.258 1.5.933 1.5 1.5 0 .623-3.171 1.032-8 1.032-6.444 0-8-.292-8-1.5zM21.48 18.77c-.786-2.23-1.735-4.548-2.108-5.15-.72-1.165-4.32 7.18-3.648 8.456.217.412 1.923.75 3.79.75h3.397z"/></svg>