<svg width="46.82" height="46.594" xmlns="http://www.w3.org/2000/svg"><path d="M11.89 43.689c-15.939-9.143-15.832-31.332.195-40.725 6.744-3.952 15.962-3.952 22.706 0 21.026 12.322 12.772 43.666-11.488 43.63-5.181-.008-7.303-.548-11.413-2.905zm17.65-.234c4.578-1.547 4.564-1.515 1.895-4.356-1.964-2.09-3.264-2.496-7.997-2.496-4.732 0-6.032.406-7.996 2.496-2.64 2.81-2.632 2.832 1.496 4.288a19.346 19.346 0 0012.601.068zm1.1-12.621c3.483-3.239 4.296-7.103 2.434-11.56-1.527-3.655-5.884-6.67-9.636-6.67-6.124 0-11.813 7.018-10.508 12.962.687 3.128 5.02 7.617 8.008 8.299 3.28.747 6.831-.362 9.702-3.031zM10.438 23.23c0-3.756-.54-5.574-2.174-7.313-2.845-3.029-3.416-2.928-4.728.834-1.383 3.967-1.387 8.268-.014 13.214l1.072 3.862 2.922-2.8c2.467-2.362 2.922-3.579 2.922-7.797zm33.613 3.184c.571-4.172-1.004-12.812-2.337-12.812-.356 0-1.688.979-2.961 2.174-3.498 3.286-3.294 11.194.387 15.037 3.149 3.286 3.956 2.563 4.91-4.399zM30.82 7.725l2.757-2.877-3.219-1.123c-4.11-1.432-9.732-1.432-13.841 0l-3.22 1.123 2.757 2.877c3.952 4.125 10.814 4.125 14.766 0z"/></svg>